G04 #@! TF.GenerationSoftware,KiCad,Pcbnew,(5.1.2)-1*
G04 #@! TF.CreationDate,2019-06-17T17:11:17-03:00*
G04 #@! TF.ProjectId,pcb_v1,7063625f-7631-42e6-9b69-6361645f7063,rev?*
G04 #@! TF.SameCoordinates,Original*
G04 #@! TF.FileFunction,Soldermask,Top*
G04 #@! TF.FilePolarity,Negative*
%FSLAX46Y46*%
G04 Gerber Fmt 4.6, Leading zero omitted, Abs format (unit mm)*
G04 Created by KiCad (PCBNEW (5.1.2)-1) date 2019-06-17 17:11:17*
%MOMM*%
%LPD*%
G04 APERTURE LIST*
%ADD10C,0.150000*%
%ADD11C,4.464000*%
%ADD12C,1.300000*%
%ADD13C,0.100000*%
%ADD14C,1.400000*%
%ADD15R,1.400000X2.000000*%
%ADD16R,1.950000X0.650000*%
%ADD17R,0.650000X1.950000*%
%ADD18R,2.100000X1.300000*%
%ADD19R,2.000000X1.400000*%
%ADD20R,2.150000X1.050000*%
%ADD21R,1.300000X2.100000*%
%ADD22R,2.400000X4.200000*%
%ADD23R,2.400000X1.900000*%
%ADD24C,1.924000*%
%ADD25C,1.664000*%
%ADD26R,1.460000X1.050000*%
%ADD27R,0.900000X1.300000*%
%ADD28R,2.100000X2.100000*%
%ADD29O,2.100000X2.100000*%
%ADD30R,1.300000X1.200000*%
%ADD31R,0.908000X1.543000*%
%ADD32R,1.500000X1.700000*%
%ADD33R,1.900000X2.600000*%
%ADD34R,2.000000X2.700000*%
%ADD35R,1.800000X2.400000*%
%ADD36R,2.200000X1.200000*%
%ADD37R,0.600000X0.950000*%
%ADD38R,0.950000X0.600000*%
G04 APERTURE END LIST*
D10*
X58260000Y-57620000D02*
G75*
G03X58260000Y-57620000I-3180000J0D01*
G01*
X57960277Y-131280000D02*
G75*
G03X57960277Y-131280000I-2890277J0D01*
G01*
X143128688Y-55080000D02*
G75*
G03X143128688Y-55080000I-3048688J0D01*
G01*
X142930280Y-135080000D02*
G75*
G03X142930280Y-135080000I-2860280J0D01*
G01*
D11*
X140090000Y-55080000D03*
X55080000Y-57620000D03*
X55080000Y-131280000D03*
X140090000Y-135150000D03*
D12*
X79238695Y-119643305D03*
D13*
G36*
X79521538Y-120845387D02*
G01*
X78036613Y-119360462D01*
X78955852Y-118441223D01*
X80440777Y-119926148D01*
X79521538Y-120845387D01*
X79521538Y-120845387D01*
G37*
D12*
X81289305Y-117592695D03*
D13*
G36*
X81572148Y-118794777D02*
G01*
X80087223Y-117309852D01*
X81006462Y-116390613D01*
X82491387Y-117875538D01*
X81572148Y-118794777D01*
X81572148Y-118794777D01*
G37*
D14*
X119380000Y-92202000D03*
X121280000Y-92202000D03*
D15*
X104902000Y-120650000D03*
X107902000Y-120650000D03*
D16*
X90190000Y-100996000D03*
X90190000Y-100496000D03*
X90190000Y-99996000D03*
X90190000Y-99496000D03*
X90190000Y-98996000D03*
X90190000Y-98496000D03*
X90190000Y-97996000D03*
X90190000Y-97496000D03*
X90190000Y-96996000D03*
X90190000Y-96496000D03*
X90190000Y-95996000D03*
X90190000Y-95496000D03*
X90190000Y-94996000D03*
X90190000Y-94496000D03*
X90190000Y-93996000D03*
X90190000Y-93496000D03*
X90190000Y-92996000D03*
X90190000Y-92496000D03*
X90190000Y-91996000D03*
X90190000Y-91496000D03*
X90190000Y-90996000D03*
X90190000Y-90496000D03*
X90190000Y-89996000D03*
X90190000Y-89496000D03*
X90190000Y-88996000D03*
D17*
X91790000Y-87396000D03*
X92290000Y-87396000D03*
X92790000Y-87396000D03*
X93290000Y-87396000D03*
X93790000Y-87396000D03*
X94290000Y-87396000D03*
X94790000Y-87396000D03*
X95290000Y-87396000D03*
X95790000Y-87396000D03*
X96290000Y-87396000D03*
X96790000Y-87396000D03*
X97290000Y-87396000D03*
X97790000Y-87396000D03*
X98290000Y-87396000D03*
X98790000Y-87396000D03*
X99290000Y-87396000D03*
X99790000Y-87396000D03*
X100290000Y-87396000D03*
X100790000Y-87396000D03*
X101290000Y-87396000D03*
X101790000Y-87396000D03*
X102290000Y-87396000D03*
X102790000Y-87396000D03*
X103290000Y-87396000D03*
X103790000Y-87396000D03*
D16*
X105390000Y-88996000D03*
X105390000Y-89496000D03*
X105390000Y-89996000D03*
X105390000Y-90496000D03*
X105390000Y-90996000D03*
X105390000Y-91496000D03*
X105390000Y-91996000D03*
X105390000Y-92496000D03*
X105390000Y-92996000D03*
X105390000Y-93496000D03*
X105390000Y-93996000D03*
X105390000Y-94496000D03*
X105390000Y-94996000D03*
X105390000Y-95496000D03*
X105390000Y-95996000D03*
X105390000Y-96496000D03*
X105390000Y-96996000D03*
X105390000Y-97496000D03*
X105390000Y-97996000D03*
X105390000Y-98496000D03*
X105390000Y-98996000D03*
X105390000Y-99496000D03*
X105390000Y-99996000D03*
X105390000Y-100496000D03*
X105390000Y-100996000D03*
D17*
X103790000Y-102596000D03*
X103290000Y-102596000D03*
X102790000Y-102596000D03*
X102290000Y-102596000D03*
X101790000Y-102596000D03*
X101290000Y-102596000D03*
X100790000Y-102596000D03*
X100290000Y-102596000D03*
X99790000Y-102596000D03*
X99290000Y-102596000D03*
X98790000Y-102596000D03*
X98290000Y-102596000D03*
X97790000Y-102596000D03*
X97290000Y-102596000D03*
X96790000Y-102596000D03*
X96290000Y-102596000D03*
X95790000Y-102596000D03*
X95290000Y-102596000D03*
X94790000Y-102596000D03*
X94290000Y-102596000D03*
X93790000Y-102596000D03*
X93290000Y-102596000D03*
X92790000Y-102596000D03*
X92290000Y-102596000D03*
X91790000Y-102596000D03*
D18*
X63754000Y-94742000D03*
X63754000Y-97642000D03*
D19*
X69596000Y-85828000D03*
X69596000Y-82828000D03*
D20*
X95238000Y-57912000D03*
X95238000Y-56642000D03*
X95238000Y-55372000D03*
X95238000Y-54102000D03*
X100838000Y-54102000D03*
X100838000Y-55372000D03*
X100838000Y-56642000D03*
X100838000Y-57912000D03*
D21*
X126132000Y-84074000D03*
X129032000Y-84074000D03*
D19*
X97028000Y-120142000D03*
X97028000Y-123142000D03*
D14*
X123653340Y-89960660D03*
D13*
G36*
X123865472Y-91162742D02*
G01*
X122451258Y-89748528D01*
X123441208Y-88758578D01*
X124855422Y-90172792D01*
X123865472Y-91162742D01*
X123865472Y-91162742D01*
G37*
D14*
X125774660Y-87839340D03*
D13*
G36*
X125986792Y-89041422D02*
G01*
X124572578Y-87627208D01*
X125562528Y-86637258D01*
X126976742Y-88051472D01*
X125986792Y-89041422D01*
X125986792Y-89041422D01*
G37*
D19*
X83820000Y-95782000D03*
X83820000Y-98782000D03*
D15*
X80288000Y-86868000D03*
X83288000Y-86868000D03*
X104418000Y-115316000D03*
X107418000Y-115316000D03*
X117324000Y-62992000D03*
X114324000Y-62992000D03*
D19*
X109474000Y-58444000D03*
X109474000Y-61444000D03*
X101600000Y-120420000D03*
X101600000Y-123420000D03*
D15*
X112546000Y-128016000D03*
X115546000Y-128016000D03*
X112800000Y-123444000D03*
X115800000Y-123444000D03*
D19*
X109728000Y-125706000D03*
X109728000Y-122706000D03*
D21*
X99420000Y-115824000D03*
X96520000Y-115824000D03*
D18*
X111506000Y-53160000D03*
X111506000Y-56060000D03*
X116332000Y-58420000D03*
X116332000Y-55520000D03*
X105156000Y-126852000D03*
X105156000Y-123952000D03*
D22*
X127610000Y-61214000D03*
D23*
X121310000Y-61214000D03*
X121310000Y-63514000D03*
X121310000Y-58914000D03*
D24*
X135690000Y-55030000D03*
X135690000Y-57570000D03*
X135690000Y-60110000D03*
X135690000Y-62650000D03*
X135690000Y-65190000D03*
X135690000Y-67730000D03*
X135690000Y-70270000D03*
X135690000Y-72810000D03*
X135690000Y-75350000D03*
X135690000Y-77890000D03*
X135690000Y-80430000D03*
X135690000Y-82970000D03*
X135690000Y-85510000D03*
X135690000Y-88050000D03*
X135690000Y-90590000D03*
X135690000Y-93130000D03*
X135690000Y-95670000D03*
X135690000Y-98210000D03*
X135690000Y-100750000D03*
X135690000Y-103290000D03*
X135690000Y-105830000D03*
X135690000Y-108370000D03*
X135690000Y-110910000D03*
X135690000Y-113450000D03*
X135690000Y-115990000D03*
X135690000Y-118530000D03*
X135690000Y-121070000D03*
X135690000Y-123610000D03*
X135690000Y-126150000D03*
X135690000Y-128690000D03*
X135690000Y-131230000D03*
X135690000Y-133770000D03*
X133150000Y-55030000D03*
X133150000Y-57570000D03*
X133150000Y-60110000D03*
X133150000Y-62650000D03*
X133150000Y-65190000D03*
X133150000Y-67730000D03*
X133150000Y-70270000D03*
X133150000Y-72810000D03*
X133150000Y-75350000D03*
X133150000Y-77890000D03*
X133150000Y-80430000D03*
X133150000Y-82970000D03*
X133150000Y-85510000D03*
X133150000Y-88050000D03*
X133150000Y-90590000D03*
X133150000Y-93130000D03*
X133150000Y-95670000D03*
X133150000Y-98210000D03*
X133150000Y-100750000D03*
X133150000Y-103290000D03*
X133150000Y-105830000D03*
X133150000Y-108370000D03*
X133150000Y-110910000D03*
X133150000Y-113450000D03*
X133150000Y-115990000D03*
X133150000Y-118530000D03*
X133150000Y-121070000D03*
X133150000Y-123610000D03*
X133150000Y-126150000D03*
X133150000Y-128690000D03*
X133150000Y-131230000D03*
D25*
X133150000Y-133770000D03*
D13*
G36*
X133982000Y-134602000D02*
G01*
X132318000Y-134602000D01*
X132318000Y-132938000D01*
X133982000Y-132938000D01*
X133982000Y-134602000D01*
X133982000Y-134602000D01*
G37*
D19*
X75184000Y-86336000D03*
X75184000Y-83336000D03*
X56642000Y-81510000D03*
X56642000Y-78510000D03*
D15*
X88416000Y-54102000D03*
X91416000Y-54102000D03*
X91416000Y-61214000D03*
X88416000Y-61214000D03*
D18*
X85344000Y-80952000D03*
X85344000Y-78052000D03*
X82804000Y-54176000D03*
X82804000Y-57076000D03*
D26*
X95166000Y-79126000D03*
X95166000Y-80076000D03*
X95166000Y-81026000D03*
X97366000Y-81026000D03*
X97366000Y-79126000D03*
D15*
X69620000Y-97536000D03*
X72620000Y-97536000D03*
D27*
X75208000Y-54356000D03*
X76708000Y-54356000D03*
D28*
X57404000Y-110236000D03*
D29*
X57404000Y-107696000D03*
X57404000Y-105156000D03*
X57404000Y-102616000D03*
X57404000Y-100076000D03*
X57404000Y-97536000D03*
X57404000Y-94996000D03*
X57404000Y-92456000D03*
X57404000Y-89916000D03*
X57404000Y-87376000D03*
D28*
X64770000Y-108712000D03*
D29*
X64770000Y-106172000D03*
D21*
X71046000Y-55372000D03*
X68146000Y-55372000D03*
D18*
X68580000Y-59510000D03*
X68580000Y-62410000D03*
D21*
X88212000Y-129032000D03*
X91112000Y-129032000D03*
X88540000Y-134874000D03*
X91440000Y-134874000D03*
D18*
X58420000Y-119052000D03*
X58420000Y-116152000D03*
D30*
X63262000Y-67122000D03*
X63262000Y-69022000D03*
X65262000Y-68072000D03*
D31*
X62357000Y-114173000D03*
X63627000Y-114173000D03*
X64897000Y-114173000D03*
X66167000Y-114173000D03*
X66167000Y-120523000D03*
X64897000Y-120523000D03*
X63627000Y-120523000D03*
X62357000Y-120523000D03*
D32*
X84137000Y-93760000D03*
X84137000Y-91660000D03*
X82487000Y-91660000D03*
X82487000Y-93760000D03*
D33*
X80130000Y-135136000D03*
D34*
X80130000Y-128136000D03*
D35*
X66680000Y-128636000D03*
X66680000Y-135136000D03*
D36*
X68580000Y-127936000D03*
X68580000Y-129036000D03*
X68580000Y-130136000D03*
X68580000Y-131236000D03*
X68580000Y-132336000D03*
X68580000Y-133436000D03*
X68580000Y-134536000D03*
X68580000Y-135636000D03*
D37*
X64608000Y-79961000D03*
X64208000Y-79961000D03*
X63808000Y-79961000D03*
X63408000Y-79961000D03*
X63008000Y-79961000D03*
X62608000Y-79961000D03*
D38*
X62108000Y-80461000D03*
X62108000Y-80861000D03*
X62108000Y-81261000D03*
X62108000Y-81661000D03*
X62108000Y-82061000D03*
X62108000Y-82461000D03*
D37*
X62608000Y-82961000D03*
X63008000Y-82961000D03*
X63408000Y-82961000D03*
X63808000Y-82961000D03*
X64208000Y-82961000D03*
X64608000Y-82961000D03*
D38*
X65108000Y-82461000D03*
X65108000Y-82061000D03*
X65108000Y-81661000D03*
X65108000Y-81261000D03*
X65108000Y-80861000D03*
X65108000Y-80461000D03*
D14*
X118618000Y-89154000D03*
D13*
G36*
X118830132Y-90356082D02*
G01*
X117415918Y-88941868D01*
X118405868Y-87951918D01*
X119820082Y-89366132D01*
X118830132Y-90356082D01*
X118830132Y-90356082D01*
G37*
D14*
X120739320Y-87032680D03*
D13*
G36*
X120951452Y-88234762D02*
G01*
X119537238Y-86820548D01*
X120527188Y-85830598D01*
X121941402Y-87244812D01*
X120951452Y-88234762D01*
X120951452Y-88234762D01*
G37*
M02*
