M48
; DRILL file {KiCad (5.1.2)-1} date 18/06/2019 11:47:41
; FORMAT={-:-/ absolute / metric / decimal}
; #@! TF.CreationDate,2019-06-18T11:47:41-03:00
; #@! TF.GenerationSoftware,Kicad,Pcbnew,(5.1.2)-1
; #@! TF.FileFunction,Plated,1,2,PTH
FMAT,2
METRIC
T1C0.400
T2C0.500
T3C0.762
T4C1.000
T5C3.048
%
G90
G05
T1
X56.896Y-78.486
X62.357Y-120.523
X63.246Y-81.28
X63.754Y-114.444
X64.281Y-82.061
X64.481Y-132.334
X64.897Y-114.173
X64.897Y-120.523
X65.024Y-83.82
X65.278Y-68.072
X66.167Y-120.523
X66.548Y-133.858
X66.68Y-128.636
X66.802Y-130.556
X67.056Y-121.92
X67.818Y-122.428
X68.326Y-132.334
X68.58Y-62.484
X68.58Y-121.92
X68.58Y-130.136
X69.38Y-122.428
X69.596Y-82.828
X69.62Y-97.536
X70.104Y-121.92
X70.924Y-122.428
X71.628Y-121.92
X72.39Y-122.428
X72.62Y-97.536
X73.38Y-121.92
X74.168Y-122.682
X75.184Y-83.336
X77.47Y-92.456
X77.724Y-88.9
X80.01Y-128.016
X80.01Y-133.35
X80.264Y-113.792
X81.026Y-88.9
X82.487Y-93.76
X83.288Y-86.868
X83.82Y-98.782
X84.137Y-91.66
X85.344Y-80.952
X85.671Y-89.059
X86.614Y-133.604
X86.614Y-133.604
X88.416Y-61.214
X91.694Y-101.279
X91.948Y-100.076
X92.202Y-93.472
X92.71Y-85.598
X93.726Y-127.762
X93.98Y-85.852
X93.98Y-92.456
X94.742Y-92.202
X95.123Y-89.103
X95.166Y-81.026
X95.238Y-54.102
X95.238Y-57.912
X95.301Y-82.829
X96.035Y-107.207
X96.52Y-92.456
X97.028Y-123.142
X97.79Y-101.092
X98.579Y-90.113
X98.806Y-101.092
X99.822Y-93.98
X100.838Y-57.912
X101.6Y-120.42
X101.6Y-123.42
X103.886Y-92.456
X104.284Y-93.996
X107.418Y-115.316
X107.902Y-120.65
X109.474Y-61.468
X109.728Y-122.706
X111.506Y-56.06
X114.3Y-63.246
X115.546Y-128.016
X115.8Y-123.444
X120.739Y-87.033
X125.775Y-87.839
X129.032Y-84.074
T2
X119.38Y-92.202
X121.28Y-92.202
T3
X133.19Y-55.03
X133.19Y-57.57
X133.19Y-60.11
X133.19Y-62.65
X133.19Y-65.19
X133.19Y-67.73
X133.19Y-70.27
X133.19Y-72.81
X133.19Y-75.35
X133.19Y-77.89
X133.19Y-80.43
X133.19Y-82.97
X133.19Y-85.51
X133.19Y-88.05
X133.19Y-90.59
X133.19Y-93.13
X133.19Y-95.67
X133.19Y-98.21
X133.19Y-100.75
X133.19Y-103.29
X133.19Y-105.83
X133.19Y-108.37
X133.19Y-110.91
X133.19Y-113.45
X133.19Y-115.99
X133.19Y-118.53
X133.19Y-121.07
X133.19Y-123.61
X133.19Y-126.15
X133.19Y-128.69
X133.19Y-131.23
X133.19Y-133.77
X135.73Y-55.03
X135.73Y-57.57
X135.73Y-60.11
X135.73Y-62.65
X135.73Y-65.19
X135.73Y-67.73
X135.73Y-70.27
X135.73Y-72.81
X135.73Y-75.35
X135.73Y-77.89
X135.73Y-80.43
X135.73Y-82.97
X135.73Y-85.51
X135.73Y-88.05
X135.73Y-90.59
X135.73Y-93.13
X135.73Y-95.67
X135.73Y-98.21
X135.73Y-100.75
X135.73Y-103.29
X135.73Y-105.83
X135.73Y-108.37
X135.73Y-110.91
X135.73Y-113.45
X135.73Y-115.99
X135.73Y-118.53
X135.73Y-121.07
X135.73Y-123.61
X135.73Y-126.15
X135.73Y-128.69
X135.73Y-131.23
X135.73Y-133.77
T4
X57.404Y-87.376
X57.404Y-89.916
X57.404Y-92.456
X57.404Y-94.996
X57.404Y-97.536
X57.404Y-100.076
X57.404Y-102.616
X57.404Y-105.156
X57.404Y-107.696
X57.404Y-110.236
X64.77Y-106.172
X64.77Y-108.712
T5
X140.09Y-135.15
X55.08Y-131.28
X140.09Y-55.08
X55.08Y-57.62
T0
M30
